# xmcd
#
# Track frame offsets: 
#        150
#        22888
#        34692
#        55779
#        66915
#        88821
#        114968
#        127597
#        143199
#        151201
#        164191
#        178074
#
# Disc length: 2567 seconds
#
# Revision: 0
# Processed by: cddbd v1.5.2PL0 Copyright (c) Steve Scherf et al.
# Submitted via: ExactAudioCopy v0.99pb4
#
DISCID=990a050c
DTITLE=Charlie Wood - Flutter and Wow
DYEAR=1900
DGENRE=
TTITLE0=American Tune
TTITLE1=Doin' the Blah Blah Blah
TTITLE2=Flutter and Wow
TTITLE3=Be My Ball
TTITLE4=Not Too Big
TTITLE5=Everybody Knows
TTITLE6=Last Dance
TTITLE7=What You Will
TTITLE8=Let's Get Up and Walk Around Some
TTITLE9=Johnsburg, Illinois
TTITLE10=Up in the Attic
TTITLE11=A Song
EXTD=
EXTT0=
EXTT1=
EXTT2=
EXTT3=
EXTT4=
EXTT5=
EXTT6=
EXTT7=
EXTT8=
EXTT9=
EXTT10=
EXTT11=
PLAYORDER=
